<svg width="39" height="32" viewBox="0 0 39 32" fill="none" xmlns="http://www.w3.org/2000/svg">
<path d="M17.6741 24.3719C17.6741 22.4479 17.1541 20.7839 16.0881 19.4319C14.4761 17.4039 11.3301 17.1439 9.51009 17.5599C8.75608 13.2699 12.3961 7.8099 17.1021 5.4699L13.4881 0.399902C6.39008 3.7799 -0.603915 11.5279 0.592085 21.3299C1.34609 27.5179 4.93408 31.5999 10.0041 31.5999C12.2141 31.5999 14.0601 30.9499 15.5161 29.6499C16.9721 28.3499 17.6741 26.5819 17.6741 24.3719ZM38.6041 24.3719C38.6041 22.4479 38.0841 20.7839 37.0181 19.4319C35.3801 17.4039 32.2601 17.1439 30.4401 17.5599C29.6861 13.2699 33.3261 7.8099 38.0321 5.4699L34.4181 0.399902C27.3201 3.7799 20.3521 11.5279 21.5481 21.3299C22.3021 27.5179 25.8641 31.5999 30.9341 31.5999C33.1441 31.5999 34.9901 30.9499 36.4461 29.6499C37.9021 28.3499 38.6041 26.5819 38.6041 24.3719Z" fill="white"/>
</svg>
